<svg xmlns="http://www.w3.org/2000/svg" xmlns:xlink="http://www.w3.org/1999/xlink" width="500" zoomAndPan="magnify" viewBox="0 0 375 374.999991" height="500" preserveAspectRatio="xMidYMid meet" version="1.2"><defs><clipPath id="33c2cce900"><path d="M 112 136 L 273 136 L 273 338 L 112 338 Z M 112 136 "/></clipPath><clipPath id="0a2585734b"><path d="M 301.3125 240.027344 L 195.394531 350.4375 L 87.148438 246.597656 L 193.066406 136.183594 Z M 301.3125 240.027344 "/></clipPath><clipPath id="28f3e742a4"><path d="M 416.679688 119.761719 L 195.5 350.324219 L -30.734375 133.300781 L 190.445312 -97.265625 Z M 416.679688 119.761719 "/></clipPath><clipPath id="1646f03aae"><path d="M 189 298 L 194 298 L 194 324 L 189 324 Z M 189 298 "/></clipPath><clipPath id="1a5135cdc2"><path d="M 301.3125 240.027344 L 195.394531 350.4375 L 87.148438 246.597656 L 193.066406 136.183594 Z M 301.3125 240.027344 "/></clipPath><clipPath id="bd42395ff1"><path d="M 416.679688 119.761719 L 195.5 350.324219 L -30.734375 133.300781 L 190.445312 -97.265625 Z M 416.679688 119.761719 "/></clipPath><clipPath id="7169acc8bc"><path d="M 197 299 L 204 299 L 204 323 L 197 323 Z M 197 299 "/></clipPath><clipPath id="4f5f25594b"><path d="M 301.3125 240.027344 L 195.394531 350.4375 L 87.148438 246.597656 L 193.066406 136.183594 Z M 301.3125 240.027344 "/></clipPath><clipPath id="321dd4ac59"><path d="M 416.679688 119.761719 L 195.5 350.324219 L -30.734375 133.300781 L 190.445312 -97.265625 Z M 416.679688 119.761719 "/></clipPath><clipPath id="1bc6d013fb"><path d="M 269 99 L 345 99 L 345 126 L 269 126 Z M 269 99 "/></clipPath><clipPath id="a0932dc98e"><path d="M 314.371094 64.28125 L 366.328125 114.125 L 313.890625 168.789062 L 261.929688 118.945312 Z M 314.371094 64.28125 "/></clipPath><clipPath id="e7882fd057"><path d="M 314.371094 64.28125 L 366.328125 114.125 L 313.890625 168.789062 L 261.929688 118.945312 Z M 314.371094 64.28125 "/></clipPath><clipPath id="d5a79189a1"><path d="M 314.371094 64.28125 L 366.328125 114.125 L 313.890625 168.789062 L 261.929688 118.945312 Z M 314.371094 64.28125 "/></clipPath><clipPath id="cdba23b625"><path d="M 279 127 L 328 127 L 328 131 L 279 131 Z M 279 127 "/></clipPath><clipPath id="0b605cd2b9"><path d="M 314.371094 64.28125 L 366.328125 114.125 L 313.890625 168.789062 L 261.929688 118.945312 Z M 314.371094 64.28125 "/></clipPath><clipPath id="86eeeea0f9"><path d="M 314.371094 64.28125 L 366.328125 114.125 L 313.890625 168.789062 L 261.929688 118.945312 Z M 314.371094 64.28125 "/></clipPath><clipPath id="9c79f88bd8"><path d="M 314.371094 64.28125 L 366.328125 114.125 L 313.890625 168.789062 L 261.929688 118.945312 Z M 314.371094 64.28125 "/></clipPath><clipPath id="f1dac25377"><path d="M 304 88 L 340 88 L 340 104 L 304 104 Z M 304 88 "/></clipPath><clipPath id="1a283f3ce3"><path d="M 314.371094 64.28125 L 366.328125 114.125 L 313.890625 168.789062 L 261.929688 118.945312 Z M 314.371094 64.28125 "/></clipPath><clipPath id="0b483d45d4"><path d="M 314.371094 64.28125 L 366.328125 114.125 L 313.890625 168.789062 L 261.929688 118.945312 Z M 314.371094 64.28125 "/></clipPath><clipPath id="45430b58f5"><path d="M 314.371094 64.28125 L 366.328125 114.125 L 313.890625 168.789062 L 261.929688 118.945312 Z M 314.371094 64.28125 "/></clipPath><clipPath id="0644ad3aba"><path d="M 335 115 L 359 115 L 359 119 L 335 119 Z M 335 115 "/></clipPath><clipPath id="b5bde7877c"><path d="M 314.371094 64.28125 L 366.328125 114.125 L 313.890625 168.789062 L 261.929688 118.945312 Z M 314.371094 64.28125 "/></clipPath><clipPath id="86d892ce08"><path d="M 314.371094 64.28125 L 366.328125 114.125 L 313.890625 168.789062 L 261.929688 118.945312 Z M 314.371094 64.28125 "/></clipPath><clipPath id="55e1e79ae3"><path d="M 314.371094 64.28125 L 366.328125 114.125 L 313.890625 168.789062 L 261.929688 118.945312 Z M 314.371094 64.28125 "/></clipPath><clipPath id="f770dee920"><path d="M 336 122 L 354 122 L 354 128 L 336 128 Z M 336 122 "/></clipPath><clipPath id="3c3512754b"><path d="M 314.371094 64.28125 L 366.328125 114.125 L 313.890625 168.789062 L 261.929688 118.945312 Z M 314.371094 64.28125 "/></clipPath><clipPath id="1b9d931676"><path d="M 314.371094 64.28125 L 366.328125 114.125 L 313.890625 168.789062 L 261.929688 118.945312 Z M 314.371094 64.28125 "/></clipPath><clipPath id="4378b90d87"><path d="M 314.371094 64.28125 L 366.328125 114.125 L 313.890625 168.789062 L 261.929688 118.945312 Z M 314.371094 64.28125 "/></clipPath><clipPath id="ef331aea9c"><path d="M 273 111 L 283 111 L 283 118 L 273 118 Z M 273 111 "/></clipPath><clipPath id="f618f6351b"><path d="M 314.371094 64.28125 L 366.328125 114.125 L 313.890625 168.789062 L 261.929688 118.945312 Z M 314.371094 64.28125 "/></clipPath><clipPath id="decbe7b41f"><path d="M 314.371094 64.28125 L 366.328125 114.125 L 313.890625 168.789062 L 261.929688 118.945312 Z M 314.371094 64.28125 "/></clipPath><clipPath id="bdbed2197c"><path d="M 314.371094 64.28125 L 366.328125 114.125 L 313.890625 168.789062 L 261.929688 118.945312 Z M 314.371094 64.28125 "/></clipPath><clipPath id="73de23054f"><path d="M 267 110 L 272 110 L 272 117 L 267 117 Z M 267 110 "/></clipPath><clipPath id="92a8337b0d"><path d="M 314.371094 64.28125 L 366.328125 114.125 L 313.890625 168.789062 L 261.929688 118.945312 Z M 314.371094 64.28125 "/></clipPath><clipPath id="cc0e5d3c4b"><path d="M 314.371094 64.28125 L 366.328125 114.125 L 313.890625 168.789062 L 261.929688 118.945312 Z M 314.371094 64.28125 "/></clipPath><clipPath id="2957da7eb5"><path d="M 314.371094 64.28125 L 366.328125 114.125 L 313.890625 168.789062 L 261.929688 118.945312 Z M 314.371094 64.28125 "/></clipPath><clipPath id="a4774d3bf3"><path d="M 279 131 L 294 131 L 294 140 L 279 140 Z M 279 131 "/></clipPath><clipPath id="7aeff8d5d0"><path d="M 314.371094 64.28125 L 366.328125 114.125 L 313.890625 168.789062 L 261.929688 118.945312 Z M 314.371094 64.28125 "/></clipPath><clipPath id="c235bce9e4"><path d="M 314.371094 64.28125 L 366.328125 114.125 L 313.890625 168.789062 L 261.929688 118.945312 Z M 314.371094 64.28125 "/></clipPath><clipPath id="04f17af163"><path d="M 314.371094 64.28125 L 366.328125 114.125 L 313.890625 168.789062 L 261.929688 118.945312 Z M 314.371094 64.28125 "/></clipPath><clipPath id="8ddc24e612"><path d="M 37 99 L 114 99 L 114 125 L 37 125 Z M 37 99 "/></clipPath><clipPath id="94877f42f0"><path d="M 15.976562 116.382812 L 65.820312 64.425781 L 120.484375 116.863281 L 70.640625 168.824219 Z M 15.976562 116.382812 "/></clipPath><clipPath id="25efc552d1"><path d="M 65.960938 64.28125 L 16.117188 116.238281 L 70.78125 168.679688 L 120.625 116.722656 Z M 65.960938 64.28125 "/></clipPath><clipPath id="c64f6f9d9c"><path d="M 65.960938 64.28125 L 16.117188 116.238281 L 70.78125 168.679688 L 120.625 116.722656 Z M 65.960938 64.28125 "/></clipPath><clipPath id="fbac10a21d"><path d="M 55 127 L 104 127 L 104 130 L 55 130 Z M 55 127 "/></clipPath><clipPath id="8703b1c119"><path d="M 15.976562 116.382812 L 65.820312 64.425781 L 120.484375 116.863281 L 70.640625 168.824219 Z M 15.976562 116.382812 "/></clipPath><clipPath id="3ba71f2bf2"><path d="M 65.960938 64.28125 L 16.117188 116.238281 L 70.78125 168.679688 L 120.625 116.722656 Z M 65.960938 64.28125 "/></clipPath><clipPath id="dbe03f3092"><path d="M 65.960938 64.28125 L 16.117188 116.238281 L 70.78125 168.679688 L 120.625 116.722656 Z M 65.960938 64.28125 "/></clipPath><clipPath id="d195460395"><path d="M 41 89 L 78 89 L 78 104 L 41 104 Z M 41 89 "/></clipPath><clipPath id="4aaf214dfe"><path d="M 15.976562 116.382812 L 65.820312 64.425781 L 120.484375 116.863281 L 70.640625 168.824219 Z M 15.976562 116.382812 "/></clipPath><clipPath id="e242d2a7df"><path d="M 65.960938 64.28125 L 16.117188 116.238281 L 70.78125 168.679688 L 120.625 116.722656 Z M 65.960938 64.28125 "/></clipPath><clipPath id="87a12afb37"><path d="M 65.960938 64.28125 L 16.117188 116.238281 L 70.78125 168.679688 L 120.625 116.722656 Z M 65.960938 64.28125 "/></clipPath><clipPath id="3307026126"><path d="M 24 117 L 47 117 L 47 120 L 24 120 Z M 24 117 "/></clipPath><clipPath id="19e17bedbf"><path d="M 15.976562 116.382812 L 65.820312 64.425781 L 120.484375 116.863281 L 70.640625 168.824219 Z M 15.976562 116.382812 "/></clipPath><clipPath id="95d2528db6"><path d="M 65.960938 64.28125 L 16.117188 116.238281 L 70.78125 168.679688 L 120.625 116.722656 Z M 65.960938 64.28125 "/></clipPath><clipPath id="804c99ff80"><path d="M 65.960938 64.28125 L 16.117188 116.238281 L 70.78125 168.679688 L 120.625 116.722656 Z M 65.960938 64.28125 "/></clipPath><clipPath id="54c41ee21b"><path d="M 29 123 L 47 123 L 47 129 L 29 129 Z M 29 123 "/></clipPath><clipPath id="85cb73f881"><path d="M 15.976562 116.382812 L 65.820312 64.425781 L 120.484375 116.863281 L 70.640625 168.824219 Z M 15.976562 116.382812 "/></clipPath><clipPath id="c12528a679"><path d="M 65.960938 64.28125 L 16.117188 116.238281 L 70.78125 168.679688 L 120.625 116.722656 Z M 65.960938 64.28125 "/></clipPath><clipPath id="6dbcd1b3b2"><path d="M 65.960938 64.28125 L 16.117188 116.238281 L 70.78125 168.679688 L 120.625 116.722656 Z M 65.960938 64.28125 "/></clipPath><clipPath id="25632cf5d5"><path d="M 100 109 L 109 109 L 109 116 L 100 116 Z M 100 109 "/></clipPath><clipPath id="ec62e25066"><path d="M 15.976562 116.382812 L 65.820312 64.425781 L 120.484375 116.863281 L 70.640625 168.824219 Z M 15.976562 116.382812 "/></clipPath><clipPath id="9e7c5b9cad"><path d="M 65.960938 64.28125 L 16.117188 116.238281 L 70.78125 168.679688 L 120.625 116.722656 Z M 65.960938 64.28125 "/></clipPath><clipPath id="ae5e4da5c7"><path d="M 65.960938 64.28125 L 16.117188 116.238281 L 70.78125 168.679688 L 120.625 116.722656 Z M 65.960938 64.28125 "/></clipPath><clipPath id="f4b576db5a"><path d="M 110 108 L 116 108 L 116 115 L 110 115 Z M 110 108 "/></clipPath><clipPath id="57dbced4a1"><path d="M 15.976562 116.382812 L 65.820312 64.425781 L 120.484375 116.863281 L 70.640625 168.824219 Z M 15.976562 116.382812 "/></clipPath><clipPath id="3b199582eb"><path d="M 65.960938 64.28125 L 16.117188 116.238281 L 70.78125 168.679688 L 120.625 116.722656 Z M 65.960938 64.28125 "/></clipPath><clipPath id="0c8e8cf656"><path d="M 65.960938 64.28125 L 16.117188 116.238281 L 70.78125 168.679688 L 120.625 116.722656 Z M 65.960938 64.28125 "/></clipPath><clipPath id="adf9f84777"><path d="M 89 130 L 104 130 L 104 139 L 89 139 Z M 89 130 "/></clipPath><clipPath id="82de7a603f"><path d="M 15.976562 116.382812 L 65.820312 64.425781 L 120.484375 116.863281 L 70.640625 168.824219 Z M 15.976562 116.382812 "/></clipPath><clipPath id="931bae5169"><path d="M 65.960938 64.28125 L 16.117188 116.238281 L 70.78125 168.679688 L 120.625 116.722656 Z M 65.960938 64.28125 "/></clipPath><clipPath id="849c27d832"><path d="M 65.960938 64.28125 L 16.117188 116.238281 L 70.78125 168.679688 L 120.625 116.722656 Z M 65.960938 64.28125 "/></clipPath><clipPath id="48b0729e0f"><path d="M 123 57 L 247 57 L 247 169 L 123 169 Z M 123 57 "/></clipPath><clipPath id="489a4edb38"><path d="M 189.832031 13.851562 L 246.03125 67.761719 L 149.101562 168.804688 L 92.902344 114.894531 Z M 189.832031 13.851562 "/></clipPath><clipPath id="073687aeb3"><path d="M 189.832031 13.851562 L 363.539062 180.484375 L 198.535156 352.488281 L 24.832031 185.851562 Z M 189.832031 13.851562 "/></clipPath><clipPath id="812451f098"><path d="M 135 57 L 261 57 L 261 167 L 135 167 Z M 135 57 "/></clipPath><clipPath id="ae2ac3b63a"><path d="M 135.949219 70.164062 L 189.675781 13.789062 L 291.039062 110.386719 L 237.3125 166.761719 Z M 135.949219 70.164062 "/></clipPath><clipPath id="e7f69f49e2"><path d="M 189.613281 13.851562 L 23.554688 188.105469 L 196.097656 352.539062 L 362.160156 178.285156 Z M 189.613281 13.851562 "/></clipPath><clipPath id="d115361f72"><path d="M 145 140 L 250 140 L 250 151 L 145 151 Z M 145 140 "/></clipPath><clipPath id="9796113e71"><path d="M 145.042969 143.425781 L 249.167969 140.878906 L 249.347656 148.300781 L 145.226562 150.847656 Z M 145.042969 143.425781 "/></clipPath></defs><g id="eba89fd41c"><g clip-rule="nonzero" clip-path="url(#33c2cce900)"><g clip-rule="nonzero" clip-path="url(#0a2585734b)"><g clip-rule="nonzero" clip-path="url(#28f3e742a4)"><path style=" stroke:none;fill-rule:nonzero;fill:#f43f5e;fill-opacity:1;" d="M 206.972656 144.859375 C 203.09375 193.6875 205.9375 241.238281 206.53125 288.785156 L 207.878906 289.429688 C 209.144531 288.46875 210.613281 287.6875 211.636719 286.519531 C 213.578125 284.292969 215.300781 284.996094 216.074219 287.105469 C 216.730469 288.910156 216.371094 291.117188 216.179688 293.113281 C 216.164062 293.257812 213.875 293.019531 212.726562 293.285156 C 211.648438 293.542969 209.761719 294.351562 209.804688 294.738281 C 210.011719 296.5625 210.644531 298.390625 211.480469 300.027344 C 211.585938 300.234375 213.910156 299.46875 215.089844 298.914062 C 216.40625 298.292969 217.597656 297.394531 218.84375 296.621094 C 219.800781 298.519531 221.3125 300.347656 221.546875 302.320312 C 221.773438 304.261719 221.042969 306.640625 217.816406 305.199219 C 216.644531 304.671875 215.367188 304.402344 214.09375 304.109375 L 212.308594 305.917969 C 212.816406 308.003906 213.3125 310.097656 214.097656 313.355469 C 216.875 311.726562 219.101562 310.21875 221.507812 309.128906 C 222.351562 308.742188 224.496094 309.121094 224.621094 309.5625 C 225.394531 312.210938 225.757812 314.992188 226.257812 317.722656 C 225.027344 317.898438 223.761719 318.359375 222.585938 318.1875 C 220.558594 317.878906 218.589844 317.175781 216.394531 316.585938 C 215.625 328.746094 208.144531 336.976562 197.917969 337.925781 C 188.132812 338.832031 178.070312 330.5625 175.464844 319.308594 C 173.035156 318.960938 170.320312 316.882812 168.625 320.855469 C 168.386719 321.410156 166.875 321.863281 166.175781 321.648438 C 165.460938 321.425781 164.53125 320.304688 164.550781 319.597656 C 164.613281 317.007812 164.78125 314.34375 165.5 311.875 C 165.6875 311.238281 168.167969 310.648438 169.261719 311.011719 C 171.746094 311.839844 174.023438 313.292969 177.023438 314.8125 C 177.539062 312.261719 177.859375 310.617188 178.261719 308.617188 C 174.796875 308.542969 172.085938 305.074219 168.691406 308.117188 C 168.433594 308.347656 166.089844 307.183594 166.039062 306.5625 C 165.753906 303.121094 164.273438 299.195312 168.546875 297.253906 C 168.34375 295.070312 167.773438 293.089844 168.109375 291.273438 C 168.308594 290.214844 168.886719 289.230469 169.496094 288.25 C 170.058594 287.355469 171.289062 287.207031 172.046875 287.933594 L 173.851562 289.824219 C 173.886719 290.273438 173.847656 290.417969 173.667969 290.628906 L 181.25 292.015625 C 181.351562 287.835938 181.574219 283.929688 181.523438 280.03125 C 180.878906 237.179688 180.148438 194.320312 179.601562 151.46875 C 179.566406 148.890625 177.75 146.667969 175.21875 146.171875 C 161.101562 143.402344 148.9375 137.054688 140.136719 125.234375 C 133.59375 116.453125 133.191406 106.847656 136.277344 96.835938 C 137.894531 91.566406 140 86.441406 141.761719 81.214844 C 144.464844 73.195312 142.855469 65.890625 137.558594 59.464844 C 133.257812 54.238281 128.359375 49.492188 124.261719 44.117188 C 104.078125 17.652344 112.90625 -16.148438 135.054688 -34.652344 C 152.542969 -49.261719 173.300781 -53.335938 195.355469 -51.804688 C 205.890625 -51.074219 216.800781 -50.539062 226.730469 -47.394531 C 248.34375 -40.5625 264.367188 -26.402344 270.503906 -4.058594 C 275.003906 12.316406 271.019531 28.363281 262.308594 42.859375 C 257.769531 50.421875 252.378906 57.492188 247.078125 64.574219 C 243.179688 69.78125 242.113281 75.128906 244.257812 81.304688 C 245.914062 86.089844 247.097656 91.023438 248.613281 95.855469 C 255.332031 117.300781 241.929688 143.609375 211.472656 145.433594 C 210.121094 145.515625 208.730469 145.078125 206.992188 144.828125 Z M 207.300781 137.886719 C 230.476562 140.226562 248.066406 119.597656 241.722656 98.4375 C 240.609375 94.742188 239.050781 91.179688 237.886719 87.484375 C 234.707031 77.367188 235.023438 68.023438 241.9375 58.980469 C 248.535156 50.359375 254.839844 41.265625 259.683594 31.585938 C 265.957031 19.054688 267.097656 5.074219 261.4375 -7.777344 C 254.265625 -24.070312 241.839844 -35.359375 223.949219 -40.160156 C 210.96875 -43.648438 197.84375 -45.015625 184.539062 -44.734375 C 168.226562 -44.386719 153.058594 -40.011719 140.25 -29.484375 C 120.785156 -13.492188 112.445312 15.148438 128.832031 38.023438 C 132.523438 43.175781 136.914062 47.839844 141.199219 52.539062 C 150.167969 62.367188 152.488281 73.394531 147.851562 85.929688 C 145.839844 91.363281 143.972656 96.855469 142.25 102.382812 C 140.332031 108.550781 141.183594 114.394531 144.867188 119.78125 C 152.414062 130.839844 163.347656 136.433594 176.046875 139.277344 C 178.855469 139.90625 179.925781 138.832031 179.898438 136.210938 C 179.847656 130.121094 179.820312 124.03125 179.59375 117.945312 C 179.558594 116.945312 178.738281 115.609375 177.878906 115.066406 C 167.167969 108.375 162.792969 98.597656 163.625 86.242188 C 164.476562 73.707031 173.464844 62.300781 185.382812 58.503906 C 196.871094 54.839844 208.863281 58.269531 216.558594 67.414062 C 227.410156 80.320312 224.988281 100.140625 211.167969 111.921875 C 209.980469 112.933594 208.371094 114.3125 208.273438 115.613281 C 207.730469 123.027344 207.574219 130.46875 207.289062 137.875 Z M 208.988281 69.664062 C 201.351562 61.347656 184.410156 62.714844 177.332031 71.320312 C 168.738281 81.757812 166.859375 95.605469 177.179688 105.394531 C 187.117188 114.832031 199.097656 113.839844 209.394531 104.058594 C 218.96875 94.972656 218.40625 78.859375 208.988281 69.664062 Z M 186.214844 327.320312 C 189.1875 328.65625 192.046875 330.507812 195.167969 331.230469 C 203.082031 333.0625 210.730469 324.542969 208.507812 316.878906 C 206.773438 310.914062 205.21875 304.898438 203.820312 298.847656 C 202.035156 291.148438 202.222656 291.449219 194.019531 292.089844 C 192.964844 292.167969 191.910156 292.144531 190.851562 292.140625 C 188.722656 292.128906 187.824219 293.179688 187.480469 295.449219 C 186.390625 302.695312 185.429688 309.988281 183.671875 317.085938 C 182.648438 321.222656 183.773438 324.015625 186.21875 327.328125 Z M 198.082031 265.433594 C 198.261719 258.988281 198.421875 253.300781 198.597656 247.242188 C 195.003906 247.535156 191.527344 247.820312 188.0625 248.105469 C 188 254.414062 187.9375 260.089844 187.871094 266.125 C 191.9375 265.847656 195.441406 265.613281 198.078125 265.425781 Z M 187.199219 133.492188 C 187.113281 138.460938 187.039062 143.257812 186.964844 148.0625 C 191.550781 147.78125 195.746094 147.523438 200.363281 147.234375 C 200.414062 142.1875 200.464844 137.441406 200.519531 132.25 C 195.78125 132.691406 191.578125 133.085938 187.203125 133.488281 Z M 188.101562 227.175781 C 188.152344 233.226562 188.195312 238.535156 188.234375 244.078125 C 191.664062 243.878906 195.042969 243.6875 197.347656 243.550781 C 197.496094 237.726562 197.640625 232.207031 197.792969 226.503906 C 194.496094 226.730469 191.242188 226.960938 188.101562 227.175781 Z M 199.804688 151.234375 L 187.671875 152.140625 C 187.335938 156.917969 187.027344 161.28125 186.683594 166.097656 C 190.902344 165.792969 194.417969 165.542969 198.347656 165.269531 C 198.785156 161.054688 199.253906 156.488281 199.796875 151.242188 Z M 197.296875 222.800781 C 197.402344 217.316406 197.5 212.1875 197.601562 206.796875 C 193.957031 207.191406 190.570312 207.558594 188.074219 207.828125 C 188.011719 213.160156 187.949219 218.296875 187.894531 223.414062 C 191.257812 223.195312 194.53125 222.984375 197.296875 222.800781 Z M 197.898438 184.804688 C 197.96875 179.796875 198.042969 174.902344 198.128906 169.386719 C 194.277344 169.589844 190.804688 169.78125 187.140625 169.980469 C 187.429688 175.300781 187.71875 180.453125 188.003906 185.828125 C 190.917969 185.53125 194.273438 185.179688 197.898438 184.804688 Z M 189.214844 269.949219 C 189.09375 275.25 188.964844 280.40625 188.839844 285.851562 C 191.675781 285.671875 194.453125 285.707031 197.128906 285.214844 C 198.046875 285.046875 199.277344 283.597656 199.390625 282.628906 C 199.871094 278.417969 199.988281 274.167969 200.246094 269.601562 C 195.214844 269.761719 191.824219 269.867188 189.222656 269.953125 Z M 187.203125 189.605469 C 187.183594 194.75 187.171875 199.210938 187.148438 204.15625 C 190.941406 203.769531 194.300781 203.433594 197.964844 203.0625 C 197.703125 198.175781 197.464844 193.59375 197.199219 188.65625 C 194.066406 188.953125 190.808594 189.265625 187.203125 189.605469 Z M 200.953125 117.917969 C 195.816406 118.148438 191.347656 118.363281 187.4375 118.535156 C 187.238281 122.222656 187.042969 125.726562 186.832031 129.582031 C 191.75 129.15625 196.042969 128.773438 200.554688 128.378906 C 200.691406 124.757812 200.824219 121.367188 200.953125 117.917969 Z M 179.875 303.441406 C 179.5625 300.976562 179.84375 297.917969 179 297.574219 C 176.238281 296.425781 172.867188 293.671875 170.332031 297.902344 C 171.160156 303.210938 175.535156 302.101562 179.882812 303.445312 Z M 179.875 303.441406 "/></g></g></g><g clip-rule="nonzero" clip-path="url(#1646f03aae)"><g clip-rule="nonzero" clip-path="url(#1a5135cdc2)"><g clip-rule="nonzero" clip-path="url(#bd42395ff1)"><path style=" stroke:none;fill-rule:nonzero;fill:#f43f5e;fill-opacity:1;" d="M 191.621094 323.035156 C 189.398438 318.445312 189.40625 303.804688 191.699219 298.777344 C 191.925781 298.273438 192.664062 298.359375 192.773438 298.890625 C 194.378906 306.664062 194.058594 314.503906 192.691406 322.863281 C 192.605469 323.402344 191.859375 323.527344 191.621094 323.035156 Z M 191.621094 323.035156 "/></g></g></g><g clip-rule="nonzero" clip-path="url(#7169acc8bc)"><g clip-rule="nonzero" clip-path="url(#4f5f25594b)"><g clip-rule="nonzero" clip-path="url(#321dd4ac59)"><path style=" stroke:none;fill-rule:nonzero;fill:#f43f5e;fill-opacity:1;" d="M 202.214844 322.152344 C 199.625 317.507812 197.453125 305.933594 197.976562 299.96875 C 198.046875 299.183594 199.148438 299.039062 199.4375 299.769531 C 202.128906 306.628906 203.066406 313.898438 203.621094 321.707031 C 203.679688 322.511719 202.601562 322.84375 202.210938 322.140625 Z M 202.214844 322.152344 "/></g></g></g><g clip-rule="nonzero" clip-path="url(#1bc6d013fb)"><g clip-rule="nonzero" clip-path="url(#a0932dc98e)"><g clip-rule="nonzero" clip-path="url(#e7882fd057)"><g clip-rule="nonzero" clip-path="url(#d5a79189a1)"><path style=" stroke:none;fill-rule:nonzero;fill:#ffd930;fill-opacity:1;" d="M 344.648438 112.148438 C 343.347656 111.015625 342.039062 109.894531 340.730469 108.769531 C 339.679688 107.75 338.632812 106.730469 337.582031 105.714844 C 336.460938 104.625 335.339844 103.539062 334.21875 102.453125 C 333.25 101.515625 332.261719 100.277344 331.070312 99.613281 C 330.058594 99.046875 328.964844 99.339844 327.921875 99.628906 C 326.414062 100.042969 324.910156 100.464844 323.414062 100.910156 C 320.542969 101.769531 317.699219 102.703125 314.878906 103.707031 C 314.6875 103.773438 314.546875 103.886719 314.453125 104.015625 C 307.25 105.871094 300.148438 108.085938 293.167969 110.652344 C 292.167969 111.019531 292.214844 112.398438 293.242188 112.6875 C 297.695312 113.933594 302.144531 115.179688 306.59375 116.425781 C 294.1875 117.894531 281.84375 120.242188 269.828125 123.625 C 268.675781 123.949219 268.992188 125.699219 270.171875 125.667969 C 284.800781 125.277344 299.433594 125.097656 314.066406 124.765625 C 318.203125 124.671875 322.347656 124.507812 326.488281 124.476562 C 327.324219 124.46875 327.664062 123.390625 327.09375 122.84375 C 324.167969 120.019531 321.121094 117.339844 317.957031 114.792969 C 326.644531 114.5 335.328125 114.046875 344.015625 113.855469 C 344.855469 113.835938 345.292969 112.710938 344.648438 112.148438 Z M 332.480469 104.816406 C 332.644531 104.917969 332.804688 105.023438 332.964844 105.132812 C 330.808594 104.277344 328.625 103.5 326.398438 102.808594 C 328.527344 102.851562 330.726562 103.714844 332.480469 104.816406 Z M 324.796875 102.941406 C 324.65625 103.191406 324.625 103.515625 324.734375 103.796875 C 324.265625 103.671875 323.796875 103.546875 323.328125 103.421875 C 323.800781 103.199219 324.292969 103.042969 324.796875 102.941406 Z M 310.738281 107.195312 C 310.796875 107.429688 310.972656 107.625 311.292969 107.675781 C 314.902344 108.242188 318.476562 108.949219 322.019531 109.761719 C 317.140625 109.011719 312.261719 108.234375 307.3125 108.183594 C 308.449219 107.84375 309.59375 107.515625 310.738281 107.195312 Z M 305.808594 108.632812 C 305.753906 108.75 305.726562 108.878906 305.722656 109.011719 C 305.402344 108.992188 305.082031 108.972656 304.765625 108.953125 C 305.113281 108.847656 305.460938 108.738281 305.808594 108.632812 Z M 296.925781 111.539062 C 298.101562 111.125 299.28125 110.722656 300.464844 110.332031 C 300.515625 110.351562 300.566406 110.367188 300.628906 110.375 C 302.019531 110.601562 303.410156 110.824219 304.804688 111.046875 C 303.507812 111.011719 302.214844 110.976562 300.921875 110.949219 C 300.019531 110.929688 299.953125 112.269531 300.785156 112.480469 C 302.714844 112.972656 304.652344 113.445312 306.589844 113.914062 C 306.558594 114.015625 306.542969 114.125 306.546875 114.234375 C 303.339844 113.335938 300.132812 112.4375 296.925781 111.539062 Z M 307.882812 112.757812 C 310.101562 112.832031 312.320312 112.90625 314.539062 112.976562 C 314.160156 113.234375 313.945312 113.734375 314.066406 114.160156 C 311.996094 113.738281 309.9375 113.265625 307.882812 112.757812 Z M 297.03125 123.082031 C 297.027344 123.03125 297.015625 122.984375 297.007812 122.933594 C 297.535156 122.976562 298.0625 123.011719 298.59375 123.054688 C 298.070312 123.066406 297.550781 123.074219 297.03125 123.082031 Z M 304.585938 119.058594 C 304.285156 119.011719 303.988281 118.96875 303.6875 118.921875 C 303.976562 118.882812 304.265625 118.84375 304.554688 118.808594 C 304.550781 118.894531 304.5625 118.980469 304.585938 119.058594 Z M 292.1875 120.742188 C 292.210938 120.769531 292.242188 120.796875 292.273438 120.820312 C 292.152344 120.8125 292.027344 120.800781 291.902344 120.792969 C 292 120.773438 292.09375 120.757812 292.1875 120.742188 Z M 282.511719 123.378906 C 281.40625 123.398438 280.296875 123.417969 279.1875 123.4375 C 280.296875 123.179688 281.410156 122.929688 282.523438 122.683594 C 285.460938 122.621094 288.359375 122.777344 291.234375 123.195312 C 288.332031 123.257812 285.421875 123.320312 282.511719 123.378906 Z M 304.828125 122.9375 C 304.941406 122.613281 304.890625 122.214844 304.65625 121.953125 C 306.644531 122.214844 308.628906 122.519531 310.605469 122.859375 C 308.679688 122.882812 306.753906 122.90625 304.828125 122.9375 Z M 314.808594 122.8125 C 314.847656 122.65625 314.84375 122.492188 314.800781 122.339844 C 315.71875 122.480469 316.636719 122.621094 317.554688 122.753906 C 318.171875 122.84375 318.664062 122.183594 318.523438 121.683594 C 319.9375 121.882812 321.363281 121.9375 322.8125 121.726562 C 322.871094 121.71875 322.929688 121.703125 322.980469 121.6875 C 323.347656 122.007812 323.714844 122.328125 324.074219 122.65625 C 320.988281 122.734375 317.898438 122.777344 314.808594 122.8125 Z M 316.6875 117.992188 C 317.195312 118.082031 317.621094 117.691406 317.746094 117.257812 C 318.453125 117.832031 319.148438 118.410156 319.84375 118.992188 C 317.570312 118.453125 315.289062 117.929688 313.011719 117.394531 C 313.023438 117.378906 313.03125 117.363281 313.042969 117.34375 C 314.253906 117.574219 315.472656 117.785156 316.6875 117.992188 Z M 318.6875 112.671875 C 318.804688 112.429688 318.808594 112.128906 318.699219 111.886719 C 319.136719 111.9375 319.574219 111.988281 320.011719 112.039062 C 321.003906 112.210938 321.992188 112.375 322.980469 112.542969 C 321.550781 112.582031 320.117188 112.625 318.6875 112.671875 Z M 313.34375 106.484375 C 314.082031 106.289062 314.816406 106.097656 315.554688 105.90625 C 319.582031 106.96875 323.6875 108.035156 327.628906 109.488281 C 322.90625 108.304688 318.128906 107.324219 313.34375 106.484375 Z M 317.714844 104.601562 C 318.347656 104.386719 318.984375 104.175781 319.625 103.972656 C 319.734375 104.003906 319.847656 104.035156 319.957031 104.066406 C 320.160156 104.703125 321.039062 105.140625 321.691406 104.558594 C 325.976562 105.820312 330.214844 107.335938 334.289062 109.195312 C 328.773438 107.597656 323.40625 105.40625 317.714844 104.601562 Z M 335.0625 111.167969 C 334.789062 111.015625 334.515625 110.867188 334.238281 110.722656 C 334.804688 110.882812 335.371094 111.035156 335.9375 111.179688 C 335.648438 111.179688 335.355469 111.175781 335.0625 111.167969 Z M 337.246094 109.023438 C 337.570312 109.125 337.890625 109.222656 338.214844 109.320312 C 338.414062 109.488281 338.609375 109.65625 338.808594 109.820312 C 338.289062 109.550781 337.769531 109.289062 337.246094 109.023438 Z M 339.613281 112.054688 C 339.617188 112.019531 339.617188 111.980469 339.617188 111.941406 C 339.695312 111.953125 339.773438 111.96875 339.855469 111.976562 C 340.285156 112.039062 340.613281 111.75 340.703125 111.410156 C 340.773438 111.472656 340.839844 111.527344 340.910156 111.585938 C 341.046875 111.722656 341.183594 111.859375 341.324219 111.992188 C 340.753906 112.019531 340.183594 112.035156 339.613281 112.054688 Z M 339.613281 112.054688 "/></g></g></g></g><g clip-rule="nonzero" clip-path="url(#cdba23b625)"><g clip-rule="nonzero" clip-path="url(#0b605cd2b9)"><g clip-rule="nonzero" clip-path="url(#86eeeea0f9)"><g clip-rule="nonzero" clip-path="url(#9c79f88bd8)"><path style=" stroke:none;fill-rule:nonzero;fill:#ffd930;fill-opacity:1;" d="M 326.832031 127.109375 C 311.28125 127.363281 295.730469 128.070312 280.191406 128.679688 C 278.875 128.730469 278.953125 130.769531 280.269531 130.722656 C 295.8125 130.148438 311.367188 129.664062 326.894531 128.738281 C 327.941406 128.675781 327.882812 127.089844 326.832031 127.109375 Z M 326.832031 127.109375 "/></g></g></g></g><g clip-rule="nonzero" clip-path="url(#f1dac25377)"><g clip-rule="nonzero" clip-path="url(#1a283f3ce3)"><g clip-rule="nonzero" clip-path="url(#0b483d45d4)"><g clip-rule="nonzero" clip-path="url(#45430b58f5)"><path style=" stroke:none;fill-rule:nonzero;fill:#ffd930;fill-opacity:1;" d="M 338.53125 88.835938 C 327.191406 93.019531 315.996094 97.605469 304.769531 102.066406 C 303.652344 102.511719 304.183594 104.308594 305.3125 103.867188 C 316.5625 99.4375 327.871094 95.125 339.011719 90.417969 C 339.972656 90.011719 339.542969 88.460938 338.53125 88.835938 Z M 338.53125 88.835938 "/></g></g></g></g><g clip-rule="nonzero" clip-path="url(#0644ad3aba)"><g clip-rule="nonzero" clip-path="url(#b5bde7877c)"><g clip-rule="nonzero" clip-path="url(#86d892ce08)"><g clip-rule="nonzero" clip-path="url(#55e1e79ae3)"><path style=" stroke:none;fill-rule:nonzero;fill:#ffd930;fill-opacity:1;" d="M 357.230469 115.296875 C 350.371094 115.96875 343.535156 116.757812 336.644531 117.070312 C 335.410156 117.128906 335.480469 119.039062 336.714844 118.988281 C 343.660156 118.6875 350.652344 118.164062 357.496094 116.871094 C 358.390625 116.699219 358.132812 115.207031 357.230469 115.296875 Z M 357.230469 115.296875 "/></g></g></g></g><g clip-rule="nonzero" clip-path="url(#f770dee920)"><g clip-rule="nonzero" clip-path="url(#3c3512754b)"><g clip-rule="nonzero" clip-path="url(#1b9d931676)"><g clip-rule="nonzero" clip-path="url(#4378b90d87)"><path style=" stroke:none;fill-rule:nonzero;fill:#ffd930;fill-opacity:1;" d="M 353.054688 125.628906 C 347.828125 124.476562 342.570312 123.46875 337.324219 122.417969 C 336.269531 122.207031 335.902344 123.839844 336.960938 124.050781 C 342.210938 125.101562 347.453125 126.191406 352.71875 127.140625 C 353.691406 127.316406 354.03125 125.847656 353.054688 125.628906 Z M 353.054688 125.628906 "/></g></g></g></g><g clip-rule="nonzero" clip-path="url(#ef331aea9c)"><g clip-rule="nonzero" clip-path="url(#f618f6351b)"><g clip-rule="nonzero" clip-path="url(#decbe7b41f)"><g clip-rule="nonzero" clip-path="url(#bdbed2197c)"><path style=" stroke:none;fill-rule:nonzero;fill:#ffd930;fill-opacity:1;" d="M 281.046875 111.242188 C 278.625 112.695312 276.246094 114.210938 273.851562 115.710938 C 272.949219 116.277344 273.820312 117.683594 274.722656 117.113281 C 277.109375 115.609375 279.507812 114.121094 281.863281 112.566406 C 282.703125 112.015625 281.910156 110.726562 281.046875 111.242188 Z M 281.046875 111.242188 "/></g></g></g></g><g clip-rule="nonzero" clip-path="url(#73de23054f)"><g clip-rule="nonzero" clip-path="url(#92a8337b0d)"><g clip-rule="nonzero" clip-path="url(#cc0e5d3c4b)"><g clip-rule="nonzero" clip-path="url(#2957da7eb5)"><path style=" stroke:none;fill-rule:nonzero;fill:#ffd930;fill-opacity:1;" d="M 268.566406 116.316406 C 269.484375 114.738281 270.421875 113.167969 271.292969 111.566406 C 271.765625 110.703125 270.464844 110.058594 269.957031 110.871094 C 268.984375 112.421875 268.070312 114.003906 267.144531 115.578125 C 266.625 116.46875 268.046875 117.203125 268.566406 116.316406 Z M 268.566406 116.316406 "/></g></g></g></g><g clip-rule="nonzero" clip-path="url(#a4774d3bf3)"><g clip-rule="nonzero" clip-path="url(#7aeff8d5d0)"><g clip-rule="nonzero" clip-path="url(#c235bce9e4)"><g clip-rule="nonzero" clip-path="url(#04f17af163)"><path style=" stroke:none;fill-rule:nonzero;fill:#ffd930;fill-opacity:1;" d="M 293.195312 137.5 C 289.113281 135.597656 284.964844 133.835938 280.832031 132.046875 C 279.679688 131.550781 278.761719 133.289062 279.925781 133.792969 C 284.066406 135.582031 288.195312 137.394531 292.382812 139.070312 C 293.417969 139.480469 294.246094 137.988281 293.195312 137.5 Z M 293.195312 137.5 "/></g></g></g></g><g clip-rule="nonzero" clip-path="url(#8ddc24e612)"><g clip-rule="nonzero" clip-path="url(#94877f42f0)"><g clip-rule="nonzero" clip-path="url(#25efc552d1)"><g clip-rule="nonzero" clip-path="url(#c64f6f9d9c)"><path style=" stroke:none;fill-rule:nonzero;fill:#ffd930;fill-opacity:1;" d="M 37.695312 113.363281 C 38.949219 112.179688 40.207031 111.003906 41.46875 109.828125 C 42.476562 108.761719 43.480469 107.703125 44.488281 106.640625 C 45.5625 105.507812 46.636719 104.375 47.714844 103.242188 C 48.644531 102.265625 49.578125 100.988281 50.738281 100.273438 C 51.726562 99.667969 52.832031 99.917969 53.890625 100.160156 C 55.410156 100.511719 56.929688 100.871094 58.445312 101.253906 C 61.347656 101.996094 64.230469 102.808594 67.089844 103.695312 C 67.28125 103.753906 67.425781 103.859375 67.527344 103.988281 C 74.800781 105.539062 81.988281 107.457031 89.070312 109.734375 C 90.085938 110.058594 90.09375 111.4375 89.078125 111.769531 C 84.683594 113.199219 80.289062 114.628906 75.894531 116.058594 C 88.351562 117.007812 100.78125 118.84375 112.925781 121.722656 C 114.09375 122 113.847656 123.761719 112.671875 123.777344 C 98.039062 124 83.40625 124.425781 68.777344 124.699219 C 64.636719 124.777344 60.492188 124.789062 56.351562 124.925781 C 55.515625 124.957031 55.132812 123.894531 55.679688 123.320312 C 58.484375 120.378906 61.417969 117.574219 64.472656 114.894531 C 55.78125 114.96875 47.085938 114.875 38.398438 115.042969 C 37.558594 115.058594 37.074219 113.953125 37.695312 113.363281 Z M 49.546875 105.53125 C 49.386719 105.640625 49.234375 105.753906 49.074219 105.867188 C 51.195312 104.925781 53.34375 104.058594 55.542969 103.273438 C 53.417969 103.40625 51.253906 104.363281 49.546875 105.53125 Z M 57.148438 103.34375 C 57.296875 103.582031 57.34375 103.910156 57.246094 104.191406 C 57.707031 104.046875 58.171875 103.902344 58.632812 103.761719 C 58.152344 103.554688 57.65625 103.421875 57.148438 103.34375 Z M 71.371094 107.007812 C 71.320312 107.242188 71.152344 107.449219 70.835938 107.511719 C 67.253906 108.226562 63.714844 109.082031 60.203125 110.039062 C 65.046875 109.085938 69.890625 108.109375 74.832031 107.851562 C 73.683594 107.5625 72.527344 107.28125 71.371094 107.007812 Z M 76.355469 108.238281 C 76.414062 108.355469 76.449219 108.484375 76.457031 108.613281 C 76.777344 108.582031 77.09375 108.546875 77.414062 108.515625 C 77.058594 108.421875 76.707031 108.332031 76.355469 108.238281 Z M 85.351562 110.773438 C 84.160156 110.410156 82.964844 110.058594 81.765625 109.714844 C 81.714844 109.734375 81.664062 109.753906 81.605469 109.765625 C 80.222656 110.046875 78.84375 110.328125 77.460938 110.609375 C 78.75 110.519531 80.042969 110.429688 81.335938 110.351562 C 82.238281 110.292969 82.355469 111.628906 81.535156 111.875 C 79.625 112.445312 77.710938 112.996094 75.796875 113.546875 C 75.832031 113.648438 75.851562 113.757812 75.851562 113.867188 C 79.015625 112.835938 82.183594 111.804688 85.351562 110.773438 Z M 74.453125 112.445312 C 72.238281 112.613281 70.027344 112.777344 67.8125 112.941406 C 68.203125 113.183594 68.4375 113.675781 68.335938 114.105469 C 70.386719 113.597656 72.425781 113.039062 74.453125 112.445312 Z M 85.726562 122.3125 C 85.726562 122.261719 85.734375 122.214844 85.746094 122.164062 C 85.21875 122.226562 84.691406 122.285156 84.164062 122.347656 C 84.683594 122.335938 85.203125 122.324219 85.726562 122.3125 Z M 78.011719 118.605469 C 78.308594 118.546875 78.605469 118.488281 78.902344 118.429688 C 78.613281 118.402344 78.320312 118.378906 78.03125 118.351562 C 78.039062 118.441406 78.03125 118.523438 78.011719 118.605469 Z M 90.46875 119.769531 C 90.445312 119.800781 90.414062 119.828125 90.386719 119.855469 C 90.507812 119.839844 90.628906 119.824219 90.753906 119.808594 C 90.660156 119.796875 90.5625 119.785156 90.46875 119.769531 Z M 100.242188 122.003906 C 101.351562 121.980469 102.457031 121.953125 103.566406 121.925781 C 102.449219 121.714844 101.328125 121.507812 100.207031 121.3125 C 97.265625 121.371094 94.378906 121.648438 91.519531 122.183594 C 94.425781 122.125 97.335938 122.066406 100.242188 122.003906 Z M 77.929688 122.488281 C 77.800781 122.171875 77.835938 121.769531 78.058594 121.5 C 76.082031 121.84375 74.113281 122.230469 72.152344 122.652344 C 74.078125 122.59375 76.003906 122.539062 77.929688 122.488281 Z M 67.953125 122.78125 C 67.910156 122.625 67.902344 122.460938 67.941406 122.308594 C 67.03125 122.488281 66.117188 122.664062 65.207031 122.835938 C 64.59375 122.953125 64.074219 122.3125 64.191406 121.808594 C 62.789062 122.0625 61.367188 122.179688 59.910156 122.027344 C 59.851562 122.023438 59.792969 122.007812 59.738281 121.996094 C 59.386719 122.332031 59.035156 122.667969 58.6875 123.007812 C 61.773438 122.957031 64.863281 122.871094 67.953125 122.78125 Z M 65.875 118.042969 C 65.371094 118.152344 64.929688 117.78125 64.789062 117.355469 C 64.105469 117.953125 63.433594 118.5625 62.761719 119.171875 C 65.011719 118.539062 67.269531 117.921875 69.523438 117.292969 C 69.511719 117.277344 69.5 117.261719 69.492188 117.242188 C 68.289062 117.523438 67.082031 117.785156 65.875 118.042969 Z M 63.65625 112.808594 C 63.53125 112.574219 63.511719 112.273438 63.613281 112.027344 C 63.175781 112.097656 62.742188 112.164062 62.304688 112.234375 C 61.324219 112.441406 60.339844 112.652344 59.359375 112.859375 C 60.792969 112.839844 62.222656 112.824219 63.65625 112.808594 Z M 68.734375 106.40625 C 67.992188 106.238281 67.25 106.078125 66.503906 105.921875 C 62.527344 107.148438 58.464844 108.386719 54.589844 110 C 59.257812 108.621094 63.992188 107.441406 68.734375 106.40625 Z M 64.292969 104.703125 C 63.648438 104.519531 63.003906 104.335938 62.359375 104.15625 C 62.25 104.191406 62.140625 104.226562 62.03125 104.261719 C 61.851562 104.90625 60.992188 105.382812 60.316406 104.828125 C 56.089844 106.265625 51.914062 107.957031 47.925781 109.984375 C 53.367188 108.160156 58.640625 105.746094 64.292969 104.703125 Z M 47.234375 111.984375 C 47.5 111.824219 47.765625 111.664062 48.035156 111.507812 C 47.480469 111.691406 46.917969 111.867188 46.359375 112.035156 C 46.648438 112.019531 46.941406 112.003906 47.234375 111.984375 Z M 44.960938 109.9375 C 44.644531 110.050781 44.324219 110.160156 44.003906 110.273438 C 43.816406 110.449219 43.625 110.621094 43.433594 110.796875 C 43.941406 110.507812 44.449219 110.21875 44.960938 109.9375 Z M 42.722656 113.0625 C 42.71875 113.023438 42.714844 112.988281 42.714844 112.949219 C 42.636719 112.964844 42.558594 112.980469 42.476562 112.996094 C 42.050781 113.074219 41.710938 112.800781 41.609375 112.464844 C 41.539062 112.527344 41.472656 112.585938 41.40625 112.648438 C 41.273438 112.789062 41.144531 112.933594 41.011719 113.070312 C 41.582031 113.074219 42.152344 113.066406 42.722656 113.0625 Z M 42.722656 113.0625 "/></g></g></g></g><g clip-rule="nonzero" clip-path="url(#fbac10a21d)"><g clip-rule="nonzero" clip-path="url(#8703b1c119)"><g clip-rule="nonzero" clip-path="url(#3ba71f2bf2)"><g clip-rule="nonzero" clip-path="url(#dbe03f3092)"><path style=" stroke:none;fill-rule:nonzero;fill:#ffd930;fill-opacity:1;" d="M 56.117188 127.570312 C 71.667969 127.183594 87.230469 127.242188 102.785156 127.203125 C 104.101562 127.203125 104.109375 129.242188 102.792969 129.25 C 87.238281 129.320312 71.675781 129.484375 56.121094 129.203125 C 55.074219 129.183594 55.066406 127.597656 56.117188 127.570312 Z M 56.117188 127.570312 "/></g></g></g></g><g clip-rule="nonzero" clip-path="url(#d195460395)"><g clip-rule="nonzero" clip-path="url(#4aaf214dfe)"><g clip-rule="nonzero" clip-path="url(#e242d2a7df)"><g clip-rule="nonzero" clip-path="url(#87a12afb37)"><path style=" stroke:none;fill-rule:nonzero;fill:#ffd930;fill-opacity:1;" d="M 42.839844 89.816406 C 54.339844 93.527344 65.71875 97.644531 77.121094 101.636719 C 78.257812 102.03125 77.796875 103.851562 76.652344 103.457031 C 65.226562 99.5 53.75 95.660156 42.425781 91.417969 C 41.445312 91.054688 41.8125 89.484375 42.839844 89.816406 Z M 42.839844 89.816406 "/></g></g></g></g><g clip-rule="nonzero" clip-path="url(#3307026126)"><g clip-rule="nonzero" clip-path="url(#19e17bedbf)"><g clip-rule="nonzero" clip-path="url(#95d2528db6)"><g clip-rule="nonzero" clip-path="url(#804c99ff80)"><path style=" stroke:none;fill-rule:nonzero;fill:#ffd930;fill-opacity:1;" d="M 25.253906 117.03125 C 32.136719 117.421875 39 117.921875 45.898438 117.949219 C 47.132812 117.957031 47.140625 119.871094 45.90625 119.867188 C 38.953125 119.859375 31.945312 119.625 25.054688 118.613281 C 24.15625 118.480469 24.347656 116.980469 25.253906 117.03125 Z M 25.253906 117.03125 "/></g></g></g></g><g clip-rule="nonzero" clip-path="url(#54c41ee21b)"><g clip-rule="nonzero" clip-path="url(#85cb73f881)"><g clip-rule="nonzero" clip-path="url(#c12528a679)"><g clip-rule="nonzero" clip-path="url(#6dbcd1b3b2)"><path style=" stroke:none;fill-rule:nonzero;fill:#ffd930;fill-opacity:1;" d="M 29.859375 127.183594 C 35.03125 125.8125 40.242188 124.585938 45.441406 123.320312 C 46.484375 123.066406 46.917969 124.679688 45.871094 124.9375 C 40.667969 126.203125 35.476562 127.511719 30.253906 128.675781 C 29.289062 128.894531 28.890625 127.441406 29.859375 127.183594 Z M 29.859375 127.183594 "/></g></g></g></g><g clip-rule="nonzero" clip-path="url(#25632cf5d5)"><g clip-rule="nonzero" clip-path="url(#ec62e25066)"><g clip-rule="nonzero" clip-path="url(#9e7c5b9cad)"><g clip-rule="nonzero" clip-path="url(#ae5e4da5c7)"><path style=" stroke:none;fill-rule:nonzero;fill:#ffd930;fill-opacity:1;" d="M 101.207031 109.820312 C 103.683594 111.167969 106.125 112.585938 108.578125 113.984375 C 109.503906 114.511719 108.691406 115.953125 107.769531 115.421875 C 105.320312 114.015625 102.859375 112.628906 100.441406 111.175781 C 99.582031 110.660156 100.324219 109.339844 101.207031 109.820312 Z M 101.207031 109.820312 "/></g></g></g></g><g clip-rule="nonzero" clip-path="url(#f4b576db5a)"><g clip-rule="nonzero" clip-path="url(#57dbced4a1)"><g clip-rule="nonzero" clip-path="url(#3b199582eb)"><g clip-rule="nonzero" clip-path="url(#0c8e8cf656)"><path style=" stroke:none;fill-rule:nonzero;fill:#ffd930;fill-opacity:1;" d="M 113.886719 114.367188 C 112.902344 112.832031 111.902344 111.300781 110.960938 109.734375 C 110.457031 108.894531 111.726562 108.195312 112.269531 108.984375 C 113.304688 110.496094 114.285156 112.035156 115.273438 113.574219 C 115.832031 114.441406 114.441406 115.234375 113.886719 114.367188 Z M 113.886719 114.367188 "/></g></g></g></g><g clip-rule="nonzero" clip-path="url(#adf9f84777)"><g clip-rule="nonzero" clip-path="url(#82de7a603f)"><g clip-rule="nonzero" clip-path="url(#931bae5169)"><g clip-rule="nonzero" clip-path="url(#849c27d832)"><path style=" stroke:none;fill-rule:nonzero;fill:#ffd930;fill-opacity:1;" d="M 90.15625 136.554688 C 94.15625 134.484375 98.226562 132.554688 102.285156 130.597656 C 103.414062 130.050781 104.402344 131.75 103.261719 132.300781 C 99.199219 134.261719 95.148438 136.246094 91.03125 138.09375 C 90.015625 138.546875 89.128906 137.085938 90.15625 136.554688 Z M 90.15625 136.554688 "/></g></g></g></g><g clip-rule="nonzero" clip-path="url(#48b0729e0f)"><g clip-rule="nonzero" clip-path="url(#489a4edb38)"><g clip-rule="nonzero" clip-path="url(#073687aeb3)"><path style=" stroke:none;fill-rule:nonzero;fill:#f43f5e;fill-opacity:1;" d="M 218.5 318.433594 L 214.980469 149.046875 L 252.117188 148.277344 C 253.746094 148.242188 255.113281 147.191406 255.582031 145.628906 C 262.492188 122.867188 261.996094 98.96875 254.171875 76.484375 C 253.640625 74.945312 252.203125 73.976562 250.597656 73.980469 L 213.464844 74.753906 L 213.234375 63.617188 C 213.199219 61.992188 212.148438 60.621094 210.585938 60.152344 C 197.605469 56.246094 183.976562 56.503906 171.140625 60.972656 C 169.601562 61.503906 168.609375 62.96875 168.640625 64.542969 L 168.875 75.679688 L 131.738281 76.449219 C 130.109375 76.484375 128.742188 77.539062 128.273438 79.097656 C 121.390625 101.886719 121.886719 125.785156 129.710938 148.269531 C 129.90625 148.820312 130.230469 149.335938 130.632812 149.722656 C 131.332031 150.390625 132.257812 150.765625 133.285156 150.769531 L 170.417969 150 L 173.9375 319.386719 C 174.089844 325.503906 176.699219 331.046875 180.800781 334.980469 C 184.929688 338.941406 190.523438 341.320312 196.667969 341.195312 C 208.984375 340.910156 218.757812 330.726562 218.5 318.433594 Z M 176.132812 67.199219 C 185.847656 64.320312 196.035156 64.105469 205.859375 66.582031 L 206.007812 74.960938 L 176.304688 75.550781 Z M 135.859375 143.257812 C 129.648438 123.863281 129.226562 103.433594 134.625 83.851562 L 248.023438 81.496094 C 254.230469 100.890625 254.65625 121.320312 249.257812 140.902344 Z M 196.539062 333.761719 C 188.347656 333.929688 181.5625 327.425781 181.367188 319.207031 L 177.847656 149.820312 L 207.578125 149.203125 L 211.09375 318.589844 C 211.265625 326.78125 204.734375 333.589844 196.539062 333.761719 Z M 196.539062 333.761719 "/></g></g></g><g clip-rule="nonzero" clip-path="url(#812451f098)"><g clip-rule="nonzero" clip-path="url(#ae2ac3b63a)"><g clip-rule="nonzero" clip-path="url(#e7f69f49e2)"><path style=" stroke:none;fill-rule:nonzero;fill:#f43f5e;fill-opacity:1;" d="M 174.628906 319.414062 L 170.550781 150.039062 L 133.421875 150.933594 C 131.792969 150.972656 130.375 149.980469 129.839844 148.445312 C 121.917969 126.011719 121.339844 102.117188 128.148438 79.304688 C 128.609375 77.742188 130.003906 76.710938 131.605469 76.644531 L 168.738281 75.75 L 168.46875 64.617188 C 168.429688 62.988281 169.421875 61.574219 170.957031 61.035156 C 183.75 56.550781 197.378906 56.195312 210.398438 60.085938 C 211.960938 60.546875 213.019531 61.96875 213.058594 63.542969 L 213.324219 74.679688 L 250.457031 73.785156 C 252.085938 73.746094 253.5 74.734375 254.039062 76.273438 C 261.933594 98.730469 262.511719 122.628906 255.703125 145.441406 C 255.53125 145.996094 255.230469 146.527344 254.84375 146.933594 C 254.179688 147.632812 253.269531 148.046875 252.246094 148.097656 L 215.113281 148.992188 L 219.191406 318.367188 C 219.3125 324.484375 216.953125 330.140625 213.03125 334.253906 C 209.085938 338.394531 203.605469 341.023438 197.460938 341.171875 C 185.144531 341.441406 174.925781 331.703125 174.628906 319.414062 Z M 205.695312 66.53125 C 195.859375 64.089844 185.671875 64.335938 175.96875 67.25 L 176.195312 75.625 L 205.894531 74.882812 Z M 249.335938 140.707031 C 254.667969 121.054688 254.175781 100.625 247.90625 81.308594 L 134.515625 84.039062 C 129.183594 103.6875 129.675781 124.117188 135.945312 143.4375 Z M 197.253906 333.742188 C 205.449219 333.542969 211.933594 326.738281 211.761719 318.519531 L 207.683594 149.144531 L 177.957031 149.859375 L 182.035156 319.234375 C 182.230469 327.429688 189.0625 333.9375 197.253906 333.742188 Z M 197.253906 333.742188 "/></g></g></g><g clip-rule="nonzero" clip-path="url(#d115361f72)"><g clip-rule="nonzero" clip-path="url(#9796113e71)"><path style=" stroke:none;fill-rule:nonzero;fill:#f43f5e;fill-opacity:1;" d="M 145.042969 143.425781 L 249.167969 140.878906 L 249.347656 148.300781 L 145.226562 150.847656 Z M 145.042969 143.425781 "/></g></g></g></svg>